<svg width="27" height="32" viewBox="0 0 27 32" fill="none" xmlns="http://www.w3.org/2000/svg">
<path d="M11.9134 0.00480004L12.0734 0.032L25.6734 3.232C25.9094 3.28722 26.1232 3.41262 26.2865 3.5917C26.4499 3.77077 26.5552 3.99512 26.5886 4.2352L26.5998 4.4V27.6C26.5999 27.8424 26.5265 28.0792 26.3895 28.2791C26.2524 28.479 26.0579 28.6328 25.8318 28.72L25.675 28.768L12.075 31.968C11.9122 32.0064 11.7433 32.0103 11.579 31.9795C11.4147 31.9487 11.2586 31.884 11.1208 31.7894C10.9829 31.6948 10.8664 31.5724 10.7786 31.4302C10.6908 31.2879 10.6337 31.1288 10.611 30.9632L10.5998 30.8V1.2C10.5996 0.889086 10.72 0.59023 10.9358 0.366388C11.1516 0.142546 11.4459 0.0111929 11.7566 0L11.9134 0.00480004ZM12.9998 2.7152V29.2848L24.1998 26.6496V5.3504L12.9998 2.7152ZM8.99976 3.2V5.6H3.39976V26.4H8.99976V28.8H2.19976C1.90978 28.8 1.62961 28.695 1.41107 28.5044C1.19253 28.3138 1.05039 28.0505 1.01096 27.7632L0.999756 27.6V4.4C0.999768 4.11002 1.10478 3.82986 1.29538 3.61131C1.48598 3.39277 1.74927 3.25064 2.03656 3.2112L2.19976 3.2H8.99976ZM16.9998 14.4C17.4241 14.4 17.8311 14.5686 18.1311 14.8686C18.4312 15.1687 18.5998 15.5757 18.5998 16C18.5998 16.4244 18.4312 16.8313 18.1311 17.1314C17.8311 17.4314 17.4241 17.6 16.9998 17.6C16.5754 17.6 16.1685 17.4314 15.8684 17.1314C15.5683 16.8313 15.3998 16.4244 15.3998 16C15.3998 15.5757 15.5683 15.1687 15.8684 14.8686C16.1685 14.5686 16.5754 14.4 16.9998 14.4Z" fill="#4D4C4D" stroke="#4D4C4D" stroke-width="0.5"/>
</svg>
